<svg width="16" height="16" viewBox="0 0 16 16" fill="none" xmlns="http://www.w3.org/2000/svg">
<mask id="mask0_27007_1170" style="mask-type:luminance" maskUnits="userSpaceOnUse" x="0" y="0" width="16" height="16">
<path d="M0 0H16V16H0V0Z" fill="white"/>
</mask>
<g mask="url(#mask0_27007_1170)">
<path d="M13.5403 4.71566L14.1556 4.10027V11.0775H9.84796V13.9975L6.92796 11.0775H0.617188V1.23135H10.9329L10.3175 1.84673H1.23257V10.4621H7.18211L9.23257 12.512V10.4621H13.5403V4.71566ZM14.56 1.52058C14.6182 1.57469 14.665 1.63994 14.6976 1.71248C14.7301 1.78501 14.7478 1.86334 14.7495 1.94283C14.7512 2.02232 14.737 2.10134 14.7076 2.17521C14.6782 2.24909 14.6343 2.31631 14.5784 2.37289L8.83996 8.11073L6.31873 9.19073C6.2768 9.20867 6.23046 9.21363 6.18569 9.20499C6.14092 9.19635 6.09976 9.1745 6.06751 9.14226C6.03527 9.11001 6.01342 9.06885 6.00478 9.02408C5.99614 8.9793 6.0011 8.93297 6.01903 8.89104L7.09903 6.36981L12.8283 0.641195C12.9413 0.528271 13.0946 0.464844 13.2544 0.464844C13.4142 0.464844 13.5675 0.528271 13.6806 0.641195L14.56 1.52058ZM8.34457 7.65289L7.55688 6.8652L6.9655 8.24366L8.34457 7.65289ZM12.8018 3.2775L11.9316 2.40796L7.95073 6.3895L8.82088 7.25904L12.8018 3.2775ZM13.9495 1.77289L13.4547 1.2572C13.4309 1.23239 13.4024 1.21259 13.3708 1.19895C13.3392 1.18531 13.3053 1.17811 13.2709 1.17777C13.2365 1.17742 13.2024 1.18394 13.1706 1.19695C13.1387 1.20995 13.1098 1.22918 13.0855 1.2535L12.3667 1.97227L13.2369 2.84304L13.9458 2.13412C13.9935 2.08632 14.0205 2.02176 14.0212 1.95426C14.0219 1.88675 13.9962 1.82165 13.9495 1.77289Z" stroke="#FCFCD1" strokeWidth="0.615385"/>
</g>
</svg>
