<svg width="16" height="16" viewBox="0 0 16 16" fill="none" xmlns="http://www.w3.org/2000/svg">
<mask id="mask0_27007_1180" style="mask-type:luminance" maskUnits="userSpaceOnUse" x="0" y="0" width="16" height="16">
<path d="M0.628906 0.470703H15.6877V15.5295H0.628906V0.470703Z" fill="white"/>
</mask>
<g mask="url(#mask0_27007_1180)">
<path fillRule="evenodd" clipRule="evenodd" d="M8.13573 0.470703C3.98514 0.470703 0.628906 3.922 0.628906 8.19117C0.628906 11.6039 2.77855 14.4923 5.76208 15.5154C6.13479 15.5916 6.27032 15.3488 6.27032 15.1446C6.27032 14.9658 6.25902 14.3521 6.25902 13.7131C4.17055 14.1733 3.73667 12.7926 3.73667 12.7926C3.39973 11.8985 2.90279 11.6679 2.90279 11.6679C2.21949 11.1945 2.95267 11.1945 2.95267 11.1945C3.71126 11.2462 4.10844 11.9869 4.10844 11.9869C4.77949 13.1634 5.86091 12.8312 6.29573 12.6269C6.35785 12.1281 6.55738 11.7827 6.7682 11.5916C5.10232 11.4128 3.35079 10.7474 3.35079 7.78176C3.35079 6.93847 3.6482 6.24764 4.12067 5.71117C4.04632 5.51917 3.78561 4.7267 4.19596 3.666C4.19596 3.666 4.82938 3.46176 6.25902 4.45847C6.87079 4.28906 7.50138 4.20435 8.13573 4.20247C8.76914 4.20247 9.41573 4.29282 10.0124 4.45847C11.4411 3.46082 12.0755 3.666 12.0755 3.666C12.4858 4.7267 12.2242 5.52011 12.1508 5.71117C12.6346 6.24764 12.9207 6.93847 12.9207 7.78176C12.9207 10.7474 11.1682 11.3987 9.49008 11.5907C9.76302 11.8335 10.0002 12.2938 10.0002 13.0222C10.0002 14.0575 9.98702 14.8886 9.98702 15.1446C9.98702 15.3488 10.1244 15.5916 10.4971 15.5154C13.4807 14.4923 15.6303 11.6039 15.6303 8.19117C15.6426 3.922 12.2741 0.470703 8.13573 0.470703Z" fill="#FCFCD1"/>
</g>
</svg>
