<svg width="125" height="40" viewBox="0 0 125 40" fill="none" xmlns="http://www.w3.org/2000/svg">
<rect x="9.23077" y="6.15385" width="27.6923" height="27.6923" rx="4.88688" fill="url(#paint0_linear_27103_1428)"/>
<path d="M30.6774 12.3982L17.2434 27.6017H30.6774C30.6774 27.6017 25.7019 27.095 24.2092 24.561C22.7165 22.0271 30.6774 12.3982 30.6774 12.3982Z" fill="#2B2B13"/>
<path d="M15.475 27.6016L28.9091 12.3981H15.475C15.475 12.3981 20.4506 12.9048 21.9433 15.4388C23.436 17.9727 15.475 27.6016 15.475 27.6016Z" fill="#2B2B13"/>
<path d="M61.3587 26.9815V29H49.1002V11.1046H52.571V26.9815H61.3587ZM71.2467 29L70.7052 27.0062C70.0652 28.3354 68.4406 29.2462 66.1021 29.2462C63.3944 29.2462 61.4252 28.04 61.4252 25.48C61.4252 24.0523 62.1144 23.0431 63.2467 22.3538C64.5267 21.5662 66.1021 21.3446 68.6129 21.3446C69.3267 21.3446 70.0652 21.3692 70.6806 21.3938V20.2615C70.6806 18.4892 69.7206 17.4062 67.9729 17.4062C66.2498 17.4062 65.2406 18.2923 65.2406 20.0154H62.139V19.7446C62.139 17.3077 64.2806 15.7569 67.9729 15.7569C71.2713 15.7569 73.856 17.3077 73.856 20.6062V29H71.2467ZM64.6744 25.3077C64.6744 26.6369 65.6098 27.4246 67.2344 27.4246C69.3513 27.4246 70.6806 25.9477 70.6806 23.8308V22.9446H69.6467C67.899 22.9446 66.2744 23.0677 65.4129 23.7569C64.9452 24.1262 64.6744 24.6185 64.6744 25.3077ZM83.9471 28.7046C83.3071 29 82.2733 29.1969 81.3133 29.1969C78.4333 29.1969 77.2763 28.0154 77.2763 25.16V17.6277H75.4794V16.0031H77.2763V13.6646L80.4271 12.8769V16.0031H83.5533V17.6277H80.4271V24.6923C80.4271 26.2923 80.4763 27.1785 82.0517 27.2769C82.5687 27.3015 83.3317 27.2523 83.9471 27.08V28.7046ZM97.7848 24.4215C97.7848 27.5477 94.954 29.2462 91.5571 29.2462C87.471 29.2462 84.8617 26.6615 84.8617 22.5754C84.8617 18.5385 87.5202 15.7569 91.5817 15.7569C94.8556 15.7569 97.834 17.4308 97.834 20.4585V20.7046H94.6094C94.6094 18.8585 93.4279 17.4062 91.5817 17.4062C88.9971 17.4062 88.1356 19.9908 88.1356 22.5754C88.1356 25.16 88.9725 27.4985 91.5571 27.4985C93.5017 27.4985 94.5356 26.1446 94.5356 24.1754H97.7848V24.4215ZM103.085 21.8369V29H99.9098V10.12H103.085V18.0954C103.824 16.7908 105.325 15.7569 107.467 15.7569C110.839 15.7569 112.882 17.9723 112.882 21.4185V29H109.731V21.7385C109.731 19.3754 108.574 17.8985 106.433 17.8985C104.316 17.8985 103.085 19.6462 103.085 21.8369Z" fill="#FCFCD1"/>
<defs>
<linearGradient id="paint0_linear_27103_1428" x1="23.0769" y1="28.7893" x2="23.0769" y2="11.473" gradientUnits="userSpaceOnUse">
<stop stop-color="#FFD70F"/>
<stop offset="0.5" stop-color="#F5F56B"/>
<stop offset="1" stop-color="#FEFFD6"/>
</linearGradient>
</defs>
</svg>
