<svg width="16" height="16" viewBox="0 0 16 16" fill="none" xmlns="http://www.w3.org/2000/svg">
<mask id="mask0_27007_1160" style="mask-type:luminance" maskUnits="userSpaceOnUse" x="0" y="0" width="16" height="16">
<path d="M0.3125 0.470703H15.3713V15.5295H0.3125V0.470703Z" fill="white"/>
</mask>
<g mask="url(#mask0_27007_1160)">
<path d="M7.09057 11.6209C7.15032 11.6183 7.20998 11.6278 7.26595 11.6489C7.32191 11.67 7.37302 11.7022 7.41619 11.7436C7.45935 11.785 7.49367 11.8347 7.51708 11.8897C7.54048 11.9448 7.55248 12.004 7.55236 12.0638C7.55223 12.1236 7.53998 12.1827 7.51634 12.2377C7.4927 12.2926 7.45817 12.3422 7.41482 12.3834C7.37148 12.4246 7.32024 12.4566 7.26418 12.4775C7.20813 12.4983 7.14842 12.5076 7.08869 12.5047C6.97137 12.5044 6.85895 12.4576 6.77617 12.3744C6.69339 12.2913 6.64703 12.1787 6.64728 12.0614C6.64753 11.9441 6.69437 11.8316 6.7775 11.7489C6.86064 11.6661 6.97325 11.6197 7.09057 11.62V11.6209ZM14.0073 8.89338C13.8903 8.89338 13.7782 8.84693 13.6955 8.76424C13.6128 8.68154 13.5663 8.56939 13.5663 8.45244C13.5663 8.3355 13.6128 8.22334 13.6955 8.14065C13.7782 8.05796 13.8903 8.0115 14.0073 8.0115C14.1242 8.0115 14.2364 8.05796 14.3191 8.14065C14.4018 8.22334 14.4482 8.3355 14.4482 8.45244C14.4482 8.56939 14.4018 8.68154 14.3191 8.76424C14.2364 8.84693 14.1242 8.89338 14.0073 8.89338ZM14.0073 7.08821C13.7911 7.08852 13.5781 7.14019 13.3857 7.23897C13.1934 7.33775 13.0273 7.4808 12.9011 7.65635C12.7749 7.8319 12.6923 8.03491 12.6599 8.24867C12.6276 8.46243 12.6465 8.68083 12.715 8.88585L8.20963 11.2849C8.08469 11.1033 7.91743 10.9549 7.7223 10.8524C7.52717 10.7499 7.31003 10.6965 7.08963 10.6967C6.5701 10.6967 6.09669 10.995 5.8661 11.46L1.81904 9.32538C1.3908 9.10044 1.0708 8.39644 1.10469 7.7555C1.12257 7.42138 1.23833 7.16162 1.41433 7.06091C1.52633 6.99785 1.65998 7.0035 1.80304 7.07785L1.82939 7.09197C2.90233 7.65668 6.41292 9.50609 6.56069 9.5748C6.78845 9.68021 6.91551 9.7235 7.30422 9.53903L14.5607 5.76491C14.667 5.72538 14.7913 5.6228 14.7913 5.4675C14.7913 5.25291 14.5692 5.16821 14.5682 5.16821C14.155 4.97056 13.5207 4.67409 12.9023 4.38421C11.58 3.76491 10.0807 3.06374 9.4228 2.71832C9.25356 2.62321 9.06256 2.57357 8.86843 2.57423C8.67429 2.57489 8.48363 2.62583 8.31504 2.72209L8.15692 2.80021C5.1941 4.26562 1.22892 6.23079 1.00304 6.36727C0.599275 6.61291 0.348923 7.10327 0.315981 7.71127C0.266099 8.67503 0.757393 9.68115 1.46045 10.0491L5.74092 12.2571C5.77758 12.5063 5.88248 12.7405 6.04399 12.9337C6.20551 13.1269 6.41734 13.2717 6.65605 13.352C6.89476 13.4323 7.15103 13.4449 7.39649 13.3886C7.64195 13.3322 7.86702 13.209 8.0468 13.0327C8.30092 12.7814 8.44775 12.4397 8.45339 12.0821L13.1687 9.52679C13.4421 9.74172 13.7874 9.84396 14.1338 9.81258C14.4802 9.78119 14.8015 9.61857 15.0318 9.358C15.2622 9.09743 15.3842 8.75864 15.3729 8.41102C15.3616 8.0634 15.2179 7.73326 14.971 7.48821C14.7155 7.23247 14.3688 7.08861 14.0073 7.08821Z" fill="#FCFCD1"/>
</g>
</svg>
