<svg width="48" height="48" viewBox="0 0 48 48" fill="none" xmlns="http://www.w3.org/2000/svg">
<g clip-path="url(#clip0_27060_8)">
<path d="M43.5 12V9C43.5 8.20435 43.1839 7.44129 42.6213 6.87868C42.0587 6.31607 41.2957 6 40.5 6H7.5C6.70435 6 5.94129 6.31607 5.37868 6.87868C4.81607 7.44129 4.5 8.20435 4.5 9V12C4.5 12.7956 4.81607 13.5587 5.37868 14.1213C5.94129 14.6839 6.70435 15 7.5 15V33H6C5.60218 33 5.22064 33.158 4.93934 33.4393C4.65804 33.7206 4.5 34.1022 4.5 34.5C4.5 34.8978 4.65804 35.2794 4.93934 35.5607C5.22064 35.842 5.60218 36 6 36H22.5V39.2587C21.4992 39.6126 20.6557 40.3089 20.1186 41.2245C19.5814 42.1401 19.3853 43.2161 19.5648 44.2623C19.7443 45.3086 20.2879 46.2577 21.0995 46.9419C21.9111 47.6261 22.9385 48.0014 24 48.0014C25.0615 48.0014 26.0889 47.6261 26.9005 46.9419C27.7121 46.2577 28.2557 45.3086 28.4352 44.2623C28.6147 43.2161 28.4186 42.1401 27.8814 41.2245C27.3443 40.3089 26.5008 39.6126 25.5 39.2587V36H42C42.3978 36 42.7794 35.842 43.0607 35.5607C43.342 35.2794 43.5 34.8978 43.5 34.5C43.5 34.1022 43.342 33.7206 43.0607 33.4393C42.7794 33.158 42.3978 33 42 33H40.5V15C41.2957 15 42.0587 14.6839 42.6213 14.1213C43.1839 13.5587 43.5 12.7956 43.5 12ZM19.5 27C19.5 27.3978 19.342 27.7794 19.0607 28.0607C18.7794 28.342 18.3978 28.5 18 28.5C17.6022 28.5 17.2206 28.342 16.9393 28.0607C16.658 27.7794 16.5 27.3978 16.5 27V24C16.5 23.6022 16.658 23.2206 16.9393 22.9393C17.2206 22.658 17.6022 22.5 18 22.5C18.3978 22.5 18.7794 22.658 19.0607 22.9393C19.342 23.2206 19.5 23.6022 19.5 24V27ZM24 45C23.7033 45 23.4133 44.912 23.1666 44.7472C22.92 44.5824 22.7277 44.3481 22.6142 44.074C22.5006 43.7999 22.4709 43.4983 22.5288 43.2074C22.5867 42.9164 22.7296 42.6491 22.9393 42.4393C23.1491 42.2296 23.4164 42.0867 23.7074 42.0288C23.9983 41.9709 24.2999 42.0006 24.574 42.1142C24.8481 42.2277 25.0824 42.42 25.2472 42.6666C25.412 42.9133 25.5 43.2033 25.5 43.5C25.5 43.8978 25.342 44.2794 25.0607 44.5607C24.7794 44.842 24.3978 45 24 45ZM25.5 27C25.5 27.3978 25.342 27.7794 25.0607 28.0607C24.7794 28.342 24.3978 28.5 24 28.5C23.6022 28.5 23.2206 28.342 22.9393 28.0607C22.658 27.7794 22.5 27.3978 22.5 27V22.5C22.5 22.1022 22.658 21.7206 22.9393 21.4393C23.2206 21.158 23.6022 21 24 21C24.3978 21 24.7794 21.158 25.0607 21.4393C25.342 21.7206 25.5 22.1022 25.5 22.5V27ZM31.5 27C31.5 27.3978 31.342 27.7794 31.0607 28.0607C30.7794 28.342 30.3978 28.5 30 28.5C29.6022 28.5 29.2206 28.342 28.9393 28.0607C28.658 27.7794 28.5 27.3978 28.5 27V21C28.5 20.6022 28.658 20.2206 28.9393 19.9393C29.2206 19.658 29.6022 19.5 30 19.5C30.3978 19.5 30.7794 19.658 31.0607 19.9393C31.342 20.2206 31.5 20.6022 31.5 21V27ZM7.5 12V9H40.5V12H7.5Z" fill="#2B2B13"/>
</g>
<defs>
<clipPath id="clip0_27060_8">
<rect width="48" height="48" fill="white"/>
</clipPath>
</defs>
</svg>
