<svg width="48" height="48" viewBox="0 0 48 48" fill="none" xmlns="http://www.w3.org/2000/svg">
<path d="M40.335 23.1825C40.4316 23.0066 40.4919 22.813 40.5124 22.6134C40.5328 22.4137 40.513 22.2119 40.4541 22.0201C40.3951 21.8282 40.2983 21.6501 40.1693 21.4963C40.0403 21.3426 39.8817 21.2163 39.703 21.1249C39.5243 21.0335 39.329 20.979 39.1288 20.9644C38.9286 20.9499 38.7276 20.9757 38.5375 21.0403C38.3475 21.1048 38.1723 21.2069 38.0225 21.3404C37.8726 21.4739 37.751 21.6362 37.665 21.8175C36.2783 24.4889 34.1162 26.6785 31.4625 28.0988L28.0425 20.4019C29.0727 19.6297 29.8607 18.579 30.3133 17.3737C30.766 16.1684 30.8645 14.8588 30.5972 13.5993C30.33 12.3399 29.7081 11.1832 28.8049 10.2656C27.9018 9.34798 26.755 8.70783 25.5 8.42062V4.5C25.5 4.10218 25.3419 3.72064 25.0606 3.43934C24.7793 3.15804 24.3978 3 24 3C23.6022 3 23.2206 3.15804 22.9393 3.43934C22.658 3.72064 22.5 4.10218 22.5 4.5V8.42062C21.2449 8.70783 20.0982 9.34798 19.195 10.2656C18.2919 11.1832 17.67 12.3399 17.4027 13.5993C17.1355 14.8588 17.234 16.1684 17.6866 17.3737C18.1393 18.579 18.9272 19.6297 19.9575 20.4019L10.6294 41.3906C10.5482 41.5708 10.5035 41.7652 10.4978 41.9627C10.492 42.1602 10.5253 42.3568 10.5958 42.5414C10.6663 42.726 10.7725 42.8948 10.9084 43.0382C11.0443 43.1816 11.2072 43.2968 11.3877 43.3771C11.5683 43.4573 11.7629 43.5011 11.9604 43.506C12.1579 43.5108 12.3544 43.4766 12.5387 43.4052C12.7229 43.3339 12.8913 43.2269 13.034 43.0903C13.1768 42.9537 13.2912 42.7903 13.3706 42.6094L18.0844 32.0044C19.9862 32.6666 21.9861 33.0032 24 33C26.0149 32.9977 28.016 32.6677 29.925 32.0231L34.6294 42.6094C34.7922 42.971 35.0916 43.2535 35.4621 43.3949C35.8326 43.5364 36.2441 43.5254 36.6065 43.3642C36.9689 43.2031 37.2528 42.905 37.396 42.5352C37.5391 42.1653 37.53 41.7538 37.3706 41.3906L32.6831 30.8438C35.961 29.1378 38.633 26.4625 40.335 23.1825ZM24 30C22.4075 30.0019 20.8249 29.7487 19.3125 29.25L22.7025 21.6225C23.5617 21.7925 24.4458 21.7925 25.305 21.6225L28.7062 29.2725C27.184 29.7544 25.5967 29.9998 24 30Z" fill="#2B2B13"/>
</svg>
